<svg version="1.1" id="Layer_1" xmlns="http://www.w3.org/2000/svg" x="0" y="0" viewBox="0 0 1081 309" xml:space="preserve"><style>.st0{fill:#010101}</style><path class="st0" d="M488.2 225.9L478 196.3h-65l-10.2 29.6h-29.6l56.2-158h32.1l56.2 158h-29.5zm-67-53.9H470l-24-70h-.9l-23.9 70zM533.6 225.9v-158h27.1v158h-27.1zM649.8 115.1c14.1 0 25.9 5.3 35.2 15.8 9.5 10.5 14.2 24.2 14.2 41.1 0 16.7-4.7 30.3-14.2 40.9s-21.2 15.8-35.2 15.8c-7.2 0-13.8-1.4-19.6-4.3-5.9-3-10.2-6.8-13.1-11.5h-.7v63.7h-27.1V117.8h24.6l1.1 13.8h.9c2.9-5 7.4-9 13.5-12 6.2-3 13-4.5 20.4-4.5zm-6.3 89.4c8.4 0 15.2-2.9 20.3-8.8 5.3-5.9 7.9-13.8 7.9-23.7 0-10.1-2.6-18.1-7.9-23.9-5.1-5.9-11.9-8.8-20.3-8.8-7.7 0-14.1 2.5-19.4 7.4-5.1 4.8-7.7 10.8-7.7 17.8v14.7c0 7.1 2.6 13.1 7.7 18.1 5.2 4.7 11.7 7.2 19.4 7.2zM801.2 117.8h24.6v108.1h-24.6l-1.4-13.8h-.7c-3 5-7.6 9-13.8 12-6 3-12.7 4.5-20.1 4.5-14.1 0-26-5.3-35.4-15.8-9.5-10.5-14.2-24.1-14.2-40.9 0-16.7 4.7-30.3 14.2-40.9 9.5-10.7 21.3-16 35.4-16 7.4 0 14.1 1.5 20.1 4.5 6.2 3 10.8 7 13.8 12h.7l1.4-13.7zm-2.5 61.4v-14.7c0-7.1-2.6-13-7.9-17.8-5.1-5-11.6-7.4-19.4-7.4-8.3 0-15 2.9-20.3 8.8-5.3 5.9-7.9 13.8-7.9 23.9 0 9.9 2.6 17.8 7.9 23.7 5.3 5.9 12 8.8 20.3 8.8 7.8 0 14.3-2.4 19.4-7.2 5.2-5 7.9-11.1 7.9-18.1zM903.3 228.6c-16.1 0-29.3-5.3-39.7-15.8-10.2-10.5-15.3-24.1-15.3-40.9 0-16.7 5.1-30.3 15.3-40.9 10.4-10.7 23.7-16 40-16 13.7 0 25.3 3.8 34.8 11.3 9.5 7.4 15.2 17.3 17.2 29.8l-27.3 4.3c-1.1-6.5-3.9-11.6-8.6-15.3-4.5-3.9-9.9-5.9-16.3-5.9-8 0-14.6 3-19.9 9-5.1 5.9-7.7 13.8-7.7 23.7s2.6 17.8 7.7 23.7c5.3 5.9 12 8.8 20.1 8.8 6.3 0 11.8-1.8 16.5-5.4 4.8-3.8 7.8-8.9 9-15.3l26.4 4.3c-2 12.2-7.7 22-17.4 29.6-9.6 7.3-21.2 11-34.8 11zM1055.4 117.8h24.6v108.1h-24.6l-1.3-13.8h-.7c-3 5-7.6 9-13.8 12-6 3-12.7 4.5-20.1 4.5-14.2 0-26-5.3-35.4-15.8-9.5-10.5-14.2-24.1-14.2-40.9 0-16.7 4.7-30.3 14.2-40.9 9.5-10.7 21.3-16 35.4-16 7.4 0 14.1 1.5 20.1 4.5 6.2 3 10.8 7 13.8 12h.7l1.3-13.7zm-2.5 61.4v-14.7c0-7.1-2.6-13-7.9-17.8-5.1-5-11.6-7.4-19.4-7.4-8.3 0-15 2.9-20.3 8.8-5.3 5.9-7.9 13.8-7.9 23.9 0 9.9 2.6 17.8 7.9 23.7 5.3 5.9 12 8.8 20.3 8.8 7.8 0 14.3-2.4 19.4-7.2 5.3-5 7.9-11.1 7.9-18.1z"/><path d="M106.7 301.2l12.1-128.4h-1.1c-9.7 0-17.7-3.5-25.1-9.8-7.4-6.3-12.3-15.1-13.8-24.8l22.9-14.9v-.2c0-10.1 3.9-19.9 10.9-27.2 7-7.3 16.5-11.7 26.6-12.1h6.8v-24c4.8 0 9.5 1.7 13.2 4.9 3.7 3.1 6.1 7.5 7 12.3h.3V59.8c3.6 0 7.2 1 10.3 2.8 3.1 1.8 5.7 4.5 7.5 7.7 1.8 3.2 2.7 6.8 2.6 10.4-.1 3.6-1.1 7.2-3 10.3 6.1 4 11.2 9.6 14.7 16.1 3.5 6.5 5.3 13.8 5.3 21.2v155c0 2.3.9 4.4 2.5 6.1 1.6 1.6 3.8 2.5 6 2.5h10.1c49.8-25.4 83.9-77.5 83.9-137.5C306.4 69.3 237.8.3 153.2.3 68.6.2 0 69.2 0 154.3c0 68.8 44.9 127.1 106.7 146.9z" fill-rule="evenodd" clip-rule="evenodd" fill="#010101"/><path class="st0" d="M123.4 130.4c0-1.2.5-2.4 1.4-3.3.9-.9 2.1-1.4 3.3-1.4h13.6c0 2.5-1 4.9-2.7 6.7-1.8 1.8-4.1 2.8-6.6 2.8H123l.4-4.8z"/></svg>