<svg xmlns="http://www.w3.org/2000/svg" viewBox="0 0 256.63 38.28"><defs><style>.cls-1{fill:#edeced;}</style></defs><title>Asset 4</title><g id="Layer_2" data-name="Layer 2"><g id="Layer_1-2" data-name="Layer 1"><path class="cls-1" d="M16.9,6.58a7.91,7.91,0,0,0-6.68,3.29c-1.66,2.19-2.48,5.32-2.48,9.38,0,3.81.78,6.85,2.35,9.09a7.66,7.66,0,0,0,6.66,3.36A7.88,7.88,0,0,0,22,30a8.87,8.87,0,0,0,2.8-5.1h7.59a16.78,16.78,0,0,1-5.4,10A15.57,15.57,0,0,1,16.6,38.28,16.56,16.56,0,0,1,7.78,36,15,15,0,0,1,2,29.38a23.86,23.86,0,0,1-2-10.2A23.09,23.09,0,0,1,2.09,9,15.54,15.54,0,0,1,8,2.34,16.41,16.41,0,0,1,16.75,0a17.39,17.39,0,0,1,7.74,1.68A14,14,0,0,1,30,6.26a13.37,13.37,0,0,1,2.41,6.6H24.8Q23.33,6.59,16.9,6.58Z"/><path class="cls-1" d="M43.71,13.86a6.74,6.74,0,0,1,3-3,9.86,9.86,0,0,1,4.66-1.11,9.39,9.39,0,0,1,6.68,2.38,8.18,8.18,0,0,1,2.54,6.25V36.86h-7V20.53q0-4.66-4.52-4.67a5.29,5.29,0,0,0-4,1.58,5.93,5.93,0,0,0-1.5,4.27V36.86h-7v-35h7v12Z"/><path class="cls-1" d="M89.63,35.82v1H82.14a10.87,10.87,0,0,1-.63-3.1,12.36,12.36,0,0,1-3.89,2.9,11.28,11.28,0,0,1-4.54.87,8.07,8.07,0,0,1-5.77-2.06,7.25,7.25,0,0,1-2.19-5.54,8.27,8.27,0,0,1,1.79-5.46q1.78-2.19,6.4-3l4.91-.73A6.35,6.35,0,0,0,80.68,20a1.69,1.69,0,0,0,.63-1.48,2.56,2.56,0,0,0-1.07-2.23,5.91,5.91,0,0,0-3.43-.77c-2.59,0-4,1.22-4.23,3.31H66a9.62,9.62,0,0,1,3-6.45q2.63-2.34,8.46-2.34c3.33,0,5.93.66,7.79,2a5.15,5.15,0,0,1,2.41,5.4V32c.41,1.21.52,2.1.76,2.67A2,2,0,0,0,89.63,35.82Zm-8-8.43V24.14a8.4,8.4,0,0,1-1.92.87,22.16,22.16,0,0,1-3,.61,6.46,6.46,0,0,0-3.31,1.2,3.23,3.23,0,0,0-1.1,2.67,3.09,3.09,0,0,0,.87,2.29,3.22,3.22,0,0,0,2.31.86A6.76,6.76,0,0,0,78.44,32a5.82,5.82,0,0,0,2.29-1.85A4.47,4.47,0,0,0,81.63,27.39Z"/><path class="cls-1" d="M108.63,10.16v7.08a13.45,13.45,0,0,0-1.79-.1q-6.21,0-6.21,5.87V36.86h-7v-26h7v5h.15c1-2.53,2-3.87,3.12-4.64a7,7,0,0,1,4-1.15C108.09,10.07,108.63,10.16,108.63,10.16Z"/><path class="cls-1" d="M124.63,10.86v5h-4V30.73a1.62,1.62,0,0,0,.53,1.43,4.28,4.28,0,0,0,2.1.34,13.12,13.12,0,0,0,1.37-.11V37c-1.8.07-3,.1-3.63.1a13.52,13.52,0,0,1-4.71-.63,3.71,3.71,0,0,1-2.12-1.86,7.49,7.49,0,0,1-.54-3.13V15.86h-3v-5h3v-7h7v7Z"/><path class="cls-1" d="M142.85,28.86l7.74-27h7.46l-11.89,35h-7l-11.78-35h7.71l7.63,27Z"/><path class="cls-1" d="M162.63,7.86v-6h7v6Zm0,29v-26h7v26Z"/><path class="cls-1" d="M186.83,32a5.36,5.36,0,0,0,2.77-.73,7.64,7.64,0,0,0,1.65-1.44h7.06a12,12,0,0,1-4.17,5.48,12.19,12.19,0,0,1-7.31,2.19q-6.48,0-9.75-3.58T173.83,23.3a15.57,15.57,0,0,1,1.44-6.85,10.91,10.91,0,0,1,4.25-4.69,12.88,12.88,0,0,1,6.77-1.69,11.68,11.68,0,0,1,8.94,3.59c2.25,2.37,3.37,6,3.4,10.83v1.37H180.7C180.92,29.91,183,32,186.83,32Zm-.65-16.67q-4.71,0-5.29,5.5h10.65a6.61,6.61,0,0,0-1.67-4A4.92,4.92,0,0,0,186.18,15.36Z"/><path class="cls-1" d="M211.82,29.86l3.74-19h7l4,19h.11l4.12-19h6.88l-7.47,26h-7.08l-4.06-19H219l-4.06,19h-7.08l-7.33-26h7.11l4.15,19Z"/><path class="cls-1" d="M256.63,10.16v7.08a13.45,13.45,0,0,0-1.79-.1q-6.21,0-6.21,5.87V36.86h-7v-26h6v5h.3c1-2.53,2-3.87,3.12-4.64a7,7,0,0,1,4-1.15Z"/></g></g></svg>